<mxfile host="Electron" modified="2024-04-06T08:18:26.436Z" agent="Mozilla/5.0 (Windows NT 10.0; Win64; x64) AppleWebKit/537.36 (KHTML, like Gecko) draw.io/24.1.0 Chrome/120.0.6099.109 Electron/28.1.0 Safari/537.36" etag="nCC07v9SA8narxXj-iuz" version="24.1.0" type="device">
  <diagram name="PÃ¡gina-1" id="pTZotY-1wmxQ1eVI6Pow">
    <mxGraphModel dx="3033" dy="2467" grid="1" gridSize="10" guides="1" tooltips="1" connect="1" arrows="1" fold="1" page="1" pageScale="1" pageWidth="827" pageHeight="1169" math="0" shadow="0">
      <root>
        <mxCell id="0" />
        <mxCell id="1" parent="0" />
        <mxCell id="yTAIwJ2hvmFpRWH2Tt7q-57" style="edgeStyle=orthogonalEdgeStyle;rounded=0;orthogonalLoop=1;jettySize=auto;html=1;exitX=0;exitY=0.25;exitDx=0;exitDy=0;entryX=0.5;entryY=1;entryDx=0;entryDy=0;endArrow=none;endFill=0;fillColor=#f8cecc;strokeColor=#67AB9F;" edge="1" parent="1" source="OKex5-OhVl83uTOGitW6-1" target="yTAIwJ2hvmFpRWH2Tt7q-56">
          <mxGeometry relative="1" as="geometry" />
        </mxCell>
        <mxCell id="OKex5-OhVl83uTOGitW6-1" value="bodega" style="rounded=0;whiteSpace=wrap;html=1;" parent="1" vertex="1">
          <mxGeometry x="1198.5" y="820" width="120" height="60" as="geometry" />
        </mxCell>
        <mxCell id="OKex5-OhVl83uTOGitW6-2" value="factura" style="rounded=0;whiteSpace=wrap;html=1;" parent="1" vertex="1">
          <mxGeometry x="1361.57" y="430" width="120" height="60" as="geometry" />
        </mxCell>
        <mxCell id="yTAIwJ2hvmFpRWH2Tt7q-31" style="rounded=0;orthogonalLoop=1;jettySize=auto;html=1;exitX=0.5;exitY=0;exitDx=0;exitDy=0;entryX=0;entryY=0.5;entryDx=0;entryDy=0;endArrow=none;endFill=0;fillColor=#f8cecc;strokeColor=#67AB9F;" edge="1" parent="1" source="OKex5-OhVl83uTOGitW6-3" target="yTAIwJ2hvmFpRWH2Tt7q-28">
          <mxGeometry relative="1" as="geometry" />
        </mxCell>
        <mxCell id="yTAIwJ2hvmFpRWH2Tt7q-43" style="edgeStyle=orthogonalEdgeStyle;rounded=0;orthogonalLoop=1;jettySize=auto;html=1;exitX=0.75;exitY=1;exitDx=0;exitDy=0;endArrow=none;endFill=0;fillColor=#f8cecc;strokeColor=#67AB9F;" edge="1" parent="1" source="OKex5-OhVl83uTOGitW6-3" target="yTAIwJ2hvmFpRWH2Tt7q-38">
          <mxGeometry relative="1" as="geometry" />
        </mxCell>
        <mxCell id="yTAIwJ2hvmFpRWH2Tt7q-70" style="edgeStyle=orthogonalEdgeStyle;rounded=0;orthogonalLoop=1;jettySize=auto;html=1;exitX=0.5;exitY=0;exitDx=0;exitDy=0;entryX=0.25;entryY=0;entryDx=0;entryDy=0;strokeColor=#67AB9F;endArrow=none;endFill=0;" edge="1" parent="1" source="OKex5-OhVl83uTOGitW6-3" target="OKex5-OhVl83uTOGitW6-1">
          <mxGeometry relative="1" as="geometry">
            <Array as="points">
              <mxPoint x="135" y="430" />
              <mxPoint x="1090" y="430" />
              <mxPoint x="1090" y="710" />
              <mxPoint x="1229" y="710" />
            </Array>
          </mxGeometry>
        </mxCell>
        <mxCell id="OKex5-OhVl83uTOGitW6-3" value="destino&amp;nbsp;" style="rounded=0;whiteSpace=wrap;html=1;" parent="1" vertex="1">
          <mxGeometry x="75" y="490" width="120" height="60" as="geometry" />
        </mxCell>
        <mxCell id="yTAIwJ2hvmFpRWH2Tt7q-21" style="edgeStyle=orthogonalEdgeStyle;rounded=0;orthogonalLoop=1;jettySize=auto;html=1;exitX=0.5;exitY=0;exitDx=0;exitDy=0;entryX=0;entryY=0.5;entryDx=0;entryDy=0;endArrow=none;endFill=0;strokeColor=#67AB9F;" edge="1" parent="1" source="OKex5-OhVl83uTOGitW6-4" target="OKex5-OhVl83uTOGitW6-8">
          <mxGeometry relative="1" as="geometry">
            <Array as="points">
              <mxPoint x="507" y="190" />
              <mxPoint x="833" y="190" />
            </Array>
          </mxGeometry>
        </mxCell>
        <mxCell id="yTAIwJ2hvmFpRWH2Tt7q-23" value="(1,M)" style="edgeLabel;html=1;align=center;verticalAlign=middle;resizable=0;points=[];" vertex="1" connectable="0" parent="yTAIwJ2hvmFpRWH2Tt7q-21">
          <mxGeometry x="-0.8754" y="1" relative="1" as="geometry">
            <mxPoint as="offset" />
          </mxGeometry>
        </mxCell>
        <mxCell id="yTAIwJ2hvmFpRWH2Tt7q-30" style="edgeStyle=orthogonalEdgeStyle;rounded=0;orthogonalLoop=1;jettySize=auto;html=1;exitX=0;exitY=0.5;exitDx=0;exitDy=0;entryX=0.5;entryY=1;entryDx=0;entryDy=0;endArrow=none;endFill=0;fillColor=#f8cecc;strokeColor=#67AB9F;" edge="1" parent="1" source="OKex5-OhVl83uTOGitW6-4" target="yTAIwJ2hvmFpRWH2Tt7q-28">
          <mxGeometry relative="1" as="geometry" />
        </mxCell>
        <mxCell id="yTAIwJ2hvmFpRWH2Tt7q-49" style="edgeStyle=orthogonalEdgeStyle;rounded=0;orthogonalLoop=1;jettySize=auto;html=1;exitX=0.5;exitY=1;exitDx=0;exitDy=0;entryX=0.5;entryY=0;entryDx=0;entryDy=0;endArrow=none;endFill=0;fillColor=#f8cecc;strokeColor=#67AB9F;" edge="1" parent="1" source="OKex5-OhVl83uTOGitW6-4" target="yTAIwJ2hvmFpRWH2Tt7q-47">
          <mxGeometry relative="1" as="geometry" />
        </mxCell>
        <mxCell id="yTAIwJ2hvmFpRWH2Tt7q-64" style="edgeStyle=orthogonalEdgeStyle;rounded=0;orthogonalLoop=1;jettySize=auto;html=1;exitX=1;exitY=0.5;exitDx=0;exitDy=0;entryX=0;entryY=0.25;entryDx=0;entryDy=0;endArrow=none;endFill=0;strokeColor=#67AB9F;" edge="1" parent="1" source="OKex5-OhVl83uTOGitW6-4" target="OKex5-OhVl83uTOGitW6-138">
          <mxGeometry relative="1" as="geometry">
            <Array as="points">
              <mxPoint x="700" y="670" />
              <mxPoint x="700" y="830" />
              <mxPoint x="775" y="830" />
            </Array>
          </mxGeometry>
        </mxCell>
        <mxCell id="yTAIwJ2hvmFpRWH2Tt7q-67" style="edgeStyle=orthogonalEdgeStyle;rounded=0;orthogonalLoop=1;jettySize=auto;html=1;exitX=0;exitY=1;exitDx=0;exitDy=0;entryX=1;entryY=0.5;entryDx=0;entryDy=0;strokeColor=#67AB9F;endArrow=none;endFill=0;" edge="1" parent="1" source="OKex5-OhVl83uTOGitW6-4" target="yTAIwJ2hvmFpRWH2Tt7q-65">
          <mxGeometry relative="1" as="geometry" />
        </mxCell>
        <mxCell id="yTAIwJ2hvmFpRWH2Tt7q-87" style="edgeStyle=orthogonalEdgeStyle;rounded=0;orthogonalLoop=1;jettySize=auto;html=1;exitX=0.75;exitY=0;exitDx=0;exitDy=0;entryX=0.5;entryY=1;entryDx=0;entryDy=0;endArrow=none;endFill=0;strokeColor=#67AB9F;" edge="1" parent="1" source="OKex5-OhVl83uTOGitW6-4" target="yTAIwJ2hvmFpRWH2Tt7q-85">
          <mxGeometry relative="1" as="geometry">
            <Array as="points">
              <mxPoint x="535" y="560" />
              <mxPoint x="1201" y="560" />
            </Array>
          </mxGeometry>
        </mxCell>
        <mxCell id="OKex5-OhVl83uTOGitW6-4" value="paquete" style="rounded=0;whiteSpace=wrap;html=1;" parent="1" vertex="1">
          <mxGeometry x="449" y="650" width="115" height="40" as="geometry" />
        </mxCell>
        <mxCell id="yTAIwJ2hvmFpRWH2Tt7q-51" style="edgeStyle=orthogonalEdgeStyle;rounded=0;orthogonalLoop=1;jettySize=auto;html=1;exitX=0.75;exitY=0;exitDx=0;exitDy=0;endArrow=none;endFill=0;fillColor=#f8cecc;strokeColor=#67AB9F;entryX=0;entryY=0.5;entryDx=0;entryDy=0;" edge="1" parent="1" source="OKex5-OhVl83uTOGitW6-5" target="yTAIwJ2hvmFpRWH2Tt7q-47">
          <mxGeometry relative="1" as="geometry">
            <mxPoint x="420" y="910" as="targetPoint" />
            <Array as="points">
              <mxPoint x="287" y="925" />
            </Array>
          </mxGeometry>
        </mxCell>
        <mxCell id="OKex5-OhVl83uTOGitW6-5" value="ruta" style="rounded=0;whiteSpace=wrap;html=1;" parent="1" vertex="1">
          <mxGeometry x="135" y="1000" width="120" height="50" as="geometry" />
        </mxCell>
        <mxCell id="OKex5-OhVl83uTOGitW6-6" value="" style="rounded=0;whiteSpace=wrap;html=1;" parent="1" vertex="1">
          <mxGeometry x="1320" y="110" width="120" height="60" as="geometry" />
        </mxCell>
        <mxCell id="OKex5-OhVl83uTOGitW6-8" value="" style="rounded=0;whiteSpace=wrap;html=1;" parent="1" vertex="1">
          <mxGeometry x="826" y="173" width="120" height="60" as="geometry" />
        </mxCell>
        <mxCell id="OKex5-OhVl83uTOGitW6-9" value="punto de control" style="rounded=0;whiteSpace=wrap;html=1;" parent="1" vertex="1">
          <mxGeometry x="595" y="-238" width="120" height="60" as="geometry" />
        </mxCell>
        <mxCell id="OKex5-OhVl83uTOGitW6-10" value="rol" style="rounded=0;whiteSpace=wrap;html=1;" parent="1" vertex="1">
          <mxGeometry x="-76" y="330" width="90" height="50" as="geometry" />
        </mxCell>
        <mxCell id="OKex5-OhVl83uTOGitW6-11" value="usuario&amp;nbsp;" style="rounded=0;whiteSpace=wrap;html=1;" parent="1" vertex="1">
          <mxGeometry x="225" y="110" width="95" height="50" as="geometry" />
        </mxCell>
        <mxCell id="yTAIwJ2hvmFpRWH2Tt7q-66" style="edgeStyle=orthogonalEdgeStyle;rounded=0;orthogonalLoop=1;jettySize=auto;html=1;exitX=0.75;exitY=0;exitDx=0;exitDy=0;entryX=0;entryY=0.5;entryDx=0;entryDy=0;strokeColor=#67AB9F;endArrow=none;endFill=0;" edge="1" parent="1" source="OKex5-OhVl83uTOGitW6-12" target="yTAIwJ2hvmFpRWH2Tt7q-65">
          <mxGeometry relative="1" as="geometry" />
        </mxCell>
        <mxCell id="OKex5-OhVl83uTOGitW6-12" value="cliente" style="rounded=0;whiteSpace=wrap;html=1;" parent="1" vertex="1">
          <mxGeometry x="-193.5" y="810" width="116" height="50" as="geometry" />
        </mxCell>
        <mxCell id="OKex5-OhVl83uTOGitW6-93" style="rounded=0;orthogonalLoop=1;jettySize=auto;html=1;exitX=0;exitY=1;exitDx=0;exitDy=0;entryX=1;entryY=0.5;entryDx=0;entryDy=0;" parent="1" source="OKex5-OhVl83uTOGitW6-13" target="OKex5-OhVl83uTOGitW6-11" edge="1">
          <mxGeometry relative="1" as="geometry" />
        </mxCell>
        <mxCell id="OKex5-OhVl83uTOGitW6-13" value="apellido" style="ellipse;whiteSpace=wrap;html=1;" parent="1" vertex="1">
          <mxGeometry x="400" y="50" width="85" height="50" as="geometry" />
        </mxCell>
        <mxCell id="OKex5-OhVl83uTOGitW6-22" value="genero" style="ellipse;whiteSpace=wrap;html=1;" parent="1" vertex="1">
          <mxGeometry x="95" y="-10" width="85" height="50" as="geometry" />
        </mxCell>
        <mxCell id="Gf0CT0m8p-BDc-EZLJfD-10" style="rounded=0;orthogonalLoop=1;jettySize=auto;html=1;exitX=1;exitY=0.5;exitDx=0;exitDy=0;entryX=0;entryY=0.5;entryDx=0;entryDy=0;" parent="1" source="OKex5-OhVl83uTOGitW6-23" target="OKex5-OhVl83uTOGitW6-4" edge="1">
          <mxGeometry relative="1" as="geometry" />
        </mxCell>
        <mxCell id="OKex5-OhVl83uTOGitW6-23" value="ID cliente" style="ellipse;whiteSpace=wrap;html=1;" parent="1" vertex="1">
          <mxGeometry x="350.5" y="560" width="85" height="50" as="geometry" />
        </mxCell>
        <mxCell id="OKex5-OhVl83uTOGitW6-24" value="referencia de destino" style="ellipse;whiteSpace=wrap;html=1;" parent="1" vertex="1">
          <mxGeometry x="742" y="760" width="85" height="50" as="geometry" />
        </mxCell>
        <mxCell id="Gf0CT0m8p-BDc-EZLJfD-17" style="rounded=0;orthogonalLoop=1;jettySize=auto;html=1;exitX=0.5;exitY=0;exitDx=0;exitDy=0;entryX=1;entryY=0.5;entryDx=0;entryDy=0;" parent="1" source="OKex5-OhVl83uTOGitW6-26" target="OKex5-OhVl83uTOGitW6-12" edge="1">
          <mxGeometry relative="1" as="geometry" />
        </mxCell>
        <mxCell id="OKex5-OhVl83uTOGitW6-26" value="telefono" style="ellipse;whiteSpace=wrap;html=1;" parent="1" vertex="1">
          <mxGeometry x="-42.5" y="865" width="85" height="50" as="geometry" />
        </mxCell>
        <mxCell id="Gf0CT0m8p-BDc-EZLJfD-3" style="rounded=0;orthogonalLoop=1;jettySize=auto;html=1;exitX=0;exitY=0.5;exitDx=0;exitDy=0;entryX=1;entryY=0.25;entryDx=0;entryDy=0;" parent="1" source="OKex5-OhVl83uTOGitW6-27" target="OKex5-OhVl83uTOGitW6-4" edge="1">
          <mxGeometry relative="1" as="geometry" />
        </mxCell>
        <mxCell id="OKex5-OhVl83uTOGitW6-27" value="fecha entrada" style="ellipse;whiteSpace=wrap;html=1;" parent="1" vertex="1">
          <mxGeometry x="621" y="570" width="85" height="50" as="geometry" />
        </mxCell>
        <mxCell id="Gf0CT0m8p-BDc-EZLJfD-1" style="rounded=0;orthogonalLoop=1;jettySize=auto;html=1;exitX=0.5;exitY=1;exitDx=0;exitDy=0;entryX=0.5;entryY=0;entryDx=0;entryDy=0;" parent="1" source="OKex5-OhVl83uTOGitW6-28" target="OKex5-OhVl83uTOGitW6-4" edge="1">
          <mxGeometry relative="1" as="geometry" />
        </mxCell>
        <mxCell id="OKex5-OhVl83uTOGitW6-28" value="fecha entrega" style="ellipse;whiteSpace=wrap;html=1;" parent="1" vertex="1">
          <mxGeometry x="595" y="490" width="85" height="50" as="geometry" />
        </mxCell>
        <mxCell id="Gf0CT0m8p-BDc-EZLJfD-4" style="rounded=0;orthogonalLoop=1;jettySize=auto;html=1;exitX=0;exitY=0.5;exitDx=0;exitDy=0;entryX=1;entryY=0.75;entryDx=0;entryDy=0;" parent="1" source="OKex5-OhVl83uTOGitW6-29" target="OKex5-OhVl83uTOGitW6-4" edge="1">
          <mxGeometry relative="1" as="geometry" />
        </mxCell>
        <mxCell id="OKex5-OhVl83uTOGitW6-29" value="estado" style="ellipse;whiteSpace=wrap;html=1;" parent="1" vertex="1">
          <mxGeometry x="716" y="680" width="85" height="50" as="geometry" />
        </mxCell>
        <mxCell id="Gf0CT0m8p-BDc-EZLJfD-7" style="rounded=0;orthogonalLoop=1;jettySize=auto;html=1;exitX=0.5;exitY=0;exitDx=0;exitDy=0;entryX=0.75;entryY=1;entryDx=0;entryDy=0;" parent="1" source="OKex5-OhVl83uTOGitW6-30" target="OKex5-OhVl83uTOGitW6-4" edge="1">
          <mxGeometry relative="1" as="geometry" />
        </mxCell>
        <mxCell id="OKex5-OhVl83uTOGitW6-30" value="peso&amp;nbsp;" style="ellipse;whiteSpace=wrap;html=1;" parent="1" vertex="1">
          <mxGeometry x="518" y="825" width="85" height="50" as="geometry" />
        </mxCell>
        <mxCell id="Gf0CT0m8p-BDc-EZLJfD-14" style="rounded=0;orthogonalLoop=1;jettySize=auto;html=1;exitX=1;exitY=0.5;exitDx=0;exitDy=0;entryX=0;entryY=0.25;entryDx=0;entryDy=0;" parent="1" source="OKex5-OhVl83uTOGitW6-31" target="OKex5-OhVl83uTOGitW6-12" edge="1">
          <mxGeometry relative="1" as="geometry" />
        </mxCell>
        <mxCell id="OKex5-OhVl83uTOGitW6-31" value="apellido" style="ellipse;whiteSpace=wrap;html=1;" parent="1" vertex="1">
          <mxGeometry x="-317.5" y="840" width="85" height="50" as="geometry" />
        </mxCell>
        <mxCell id="OKex5-OhVl83uTOGitW6-110" style="rounded=0;orthogonalLoop=1;jettySize=auto;html=1;exitX=0.5;exitY=0;exitDx=0;exitDy=0;entryX=0;entryY=0.75;entryDx=0;entryDy=0;" parent="1" source="OKex5-OhVl83uTOGitW6-33" target="OKex5-OhVl83uTOGitW6-9" edge="1">
          <mxGeometry relative="1" as="geometry" />
        </mxCell>
        <mxCell id="OKex5-OhVl83uTOGitW6-33" value="ID usuario" style="ellipse;whiteSpace=wrap;html=1;" parent="1" vertex="1">
          <mxGeometry x="485" y="-165" width="85" height="50" as="geometry" />
        </mxCell>
        <mxCell id="Gf0CT0m8p-BDc-EZLJfD-23" style="rounded=0;orthogonalLoop=1;jettySize=auto;html=1;exitX=0.5;exitY=1;exitDx=0;exitDy=0;entryX=0.25;entryY=0;entryDx=0;entryDy=0;" parent="1" source="OKex5-OhVl83uTOGitW6-34" target="OKex5-OhVl83uTOGitW6-3" edge="1">
          <mxGeometry relative="1" as="geometry" />
        </mxCell>
        <mxCell id="OKex5-OhVl83uTOGitW6-34" value="ID" style="ellipse;whiteSpace=wrap;html=1;" parent="1" vertex="1">
          <mxGeometry x="15" y="405" width="85" height="50" as="geometry" />
        </mxCell>
        <mxCell id="Gf0CT0m8p-BDc-EZLJfD-24" style="rounded=0;orthogonalLoop=1;jettySize=auto;html=1;exitX=1;exitY=0.5;exitDx=0;exitDy=0;entryX=0;entryY=0.75;entryDx=0;entryDy=0;" parent="1" source="OKex5-OhVl83uTOGitW6-35" target="OKex5-OhVl83uTOGitW6-3" edge="1">
          <mxGeometry relative="1" as="geometry" />
        </mxCell>
        <mxCell id="OKex5-OhVl83uTOGitW6-35" value="nombre" style="ellipse;whiteSpace=wrap;html=1;" parent="1" vertex="1">
          <mxGeometry x="-55" y="495" width="85" height="50" as="geometry" />
        </mxCell>
        <mxCell id="OKex5-OhVl83uTOGitW6-36" value="pago" style="ellipse;whiteSpace=wrap;html=1;" parent="1" vertex="1">
          <mxGeometry x="-190" y="470" width="85" height="50" as="geometry" />
        </mxCell>
        <mxCell id="OKex5-OhVl83uTOGitW6-37" value="ID" style="ellipse;whiteSpace=wrap;html=1;" parent="1" vertex="1">
          <mxGeometry x="-180" y="250" width="85" height="50" as="geometry" />
        </mxCell>
        <mxCell id="OKex5-OhVl83uTOGitW6-39" value="estado" style="ellipse;whiteSpace=wrap;html=1;" parent="1" vertex="1">
          <mxGeometry x="60" y="130" width="85" height="50" as="geometry" />
        </mxCell>
        <mxCell id="Gf0CT0m8p-BDc-EZLJfD-9" style="rounded=0;orthogonalLoop=1;jettySize=auto;html=1;exitX=0.5;exitY=1;exitDx=0;exitDy=0;entryX=0.25;entryY=0;entryDx=0;entryDy=0;" parent="1" source="OKex5-OhVl83uTOGitW6-40" target="OKex5-OhVl83uTOGitW6-4" edge="1">
          <mxGeometry relative="1" as="geometry" />
        </mxCell>
        <mxCell id="OKex5-OhVl83uTOGitW6-40" value="ID" style="ellipse;whiteSpace=wrap;html=1;" parent="1" vertex="1">
          <mxGeometry x="414" y="520" width="85" height="50" as="geometry" />
        </mxCell>
        <mxCell id="Gf0CT0m8p-BDc-EZLJfD-6" style="rounded=0;orthogonalLoop=1;jettySize=auto;html=1;exitX=0.5;exitY=0;exitDx=0;exitDy=0;entryX=0.75;entryY=1;entryDx=0;entryDy=0;" parent="1" source="OKex5-OhVl83uTOGitW6-41" target="OKex5-OhVl83uTOGitW6-4" edge="1">
          <mxGeometry relative="1" as="geometry" />
        </mxCell>
        <mxCell id="OKex5-OhVl83uTOGitW6-41" value="descripcion" style="ellipse;whiteSpace=wrap;html=1;" parent="1" vertex="1">
          <mxGeometry x="603" y="780" width="85" height="50" as="geometry" />
        </mxCell>
        <mxCell id="Gf0CT0m8p-BDc-EZLJfD-25" style="rounded=0;orthogonalLoop=1;jettySize=auto;html=1;exitX=0.5;exitY=0;exitDx=0;exitDy=0;entryX=0.25;entryY=1;entryDx=0;entryDy=0;" parent="1" source="OKex5-OhVl83uTOGitW6-42" target="OKex5-OhVl83uTOGitW6-3" edge="1">
          <mxGeometry relative="1" as="geometry" />
        </mxCell>
        <mxCell id="OKex5-OhVl83uTOGitW6-42" value="direcion" style="ellipse;whiteSpace=wrap;html=1;" parent="1" vertex="1">
          <mxGeometry x="-20" y="585" width="85" height="50" as="geometry" />
        </mxCell>
        <mxCell id="Gf0CT0m8p-BDc-EZLJfD-12" style="rounded=0;orthogonalLoop=1;jettySize=auto;html=1;exitX=0.5;exitY=1;exitDx=0;exitDy=0;" parent="1" source="OKex5-OhVl83uTOGitW6-43" target="OKex5-OhVl83uTOGitW6-12" edge="1">
          <mxGeometry relative="1" as="geometry" />
        </mxCell>
        <mxCell id="OKex5-OhVl83uTOGitW6-43" value="ID" style="ellipse;whiteSpace=wrap;html=1;" parent="1" vertex="1">
          <mxGeometry x="-227.5" y="700" width="85" height="50" as="geometry" />
        </mxCell>
        <mxCell id="Gf0CT0m8p-BDc-EZLJfD-13" style="rounded=0;orthogonalLoop=1;jettySize=auto;html=1;exitX=1;exitY=1;exitDx=0;exitDy=0;entryX=0;entryY=0.75;entryDx=0;entryDy=0;" parent="1" source="OKex5-OhVl83uTOGitW6-44" target="OKex5-OhVl83uTOGitW6-12" edge="1">
          <mxGeometry relative="1" as="geometry" />
        </mxCell>
        <mxCell id="OKex5-OhVl83uTOGitW6-44" value="nombre" style="ellipse;whiteSpace=wrap;html=1;" parent="1" vertex="1">
          <mxGeometry x="-308.5" y="765" width="85" height="50" as="geometry" />
        </mxCell>
        <mxCell id="Gf0CT0m8p-BDc-EZLJfD-16" style="rounded=0;orthogonalLoop=1;jettySize=auto;html=1;exitX=0.5;exitY=0;exitDx=0;exitDy=0;entryX=0.5;entryY=1;entryDx=0;entryDy=0;" parent="1" source="OKex5-OhVl83uTOGitW6-45" target="OKex5-OhVl83uTOGitW6-12" edge="1">
          <mxGeometry relative="1" as="geometry" />
        </mxCell>
        <mxCell id="OKex5-OhVl83uTOGitW6-45" value="genero" style="ellipse;whiteSpace=wrap;html=1;" parent="1" vertex="1">
          <mxGeometry x="-133.5" y="900" width="85" height="50" as="geometry" />
        </mxCell>
        <mxCell id="yTAIwJ2hvmFpRWH2Tt7q-14" style="rounded=0;orthogonalLoop=1;jettySize=auto;html=1;exitX=1;exitY=0.5;exitDx=0;exitDy=0;entryX=0;entryY=0.75;entryDx=0;entryDy=0;" edge="1" parent="1" source="OKex5-OhVl83uTOGitW6-46" target="OKex5-OhVl83uTOGitW6-8">
          <mxGeometry relative="1" as="geometry" />
        </mxCell>
        <mxCell id="OKex5-OhVl83uTOGitW6-46" value="ID punto control" style="ellipse;whiteSpace=wrap;html=1;" parent="1" vertex="1">
          <mxGeometry x="700" y="248" width="85" height="50" as="geometry" />
        </mxCell>
        <mxCell id="OKex5-OhVl83uTOGitW6-47" value="ID paquete" style="ellipse;whiteSpace=wrap;html=1;" parent="1" vertex="1">
          <mxGeometry x="706" y="118" width="85" height="50" as="geometry" />
        </mxCell>
        <mxCell id="yTAIwJ2hvmFpRWH2Tt7q-7" style="rounded=0;orthogonalLoop=1;jettySize=auto;html=1;exitX=0.5;exitY=1;exitDx=0;exitDy=0;entryX=0.75;entryY=0;entryDx=0;entryDy=0;" edge="1" parent="1" source="OKex5-OhVl83uTOGitW6-48" target="OKex5-OhVl83uTOGitW6-8">
          <mxGeometry relative="1" as="geometry" />
        </mxCell>
        <mxCell id="OKex5-OhVl83uTOGitW6-48" value="fecha salida" style="ellipse;whiteSpace=wrap;html=1;" parent="1" vertex="1">
          <mxGeometry x="926" y="68" width="85" height="50" as="geometry" />
        </mxCell>
        <mxCell id="OKex5-OhVl83uTOGitW6-49" value="ID ruta" style="ellipse;whiteSpace=wrap;html=1;" parent="1" vertex="1">
          <mxGeometry x="770" y="308" width="85" height="50" as="geometry" />
        </mxCell>
        <mxCell id="OKex5-OhVl83uTOGitW6-97" style="rounded=0;orthogonalLoop=1;jettySize=auto;html=1;exitX=0;exitY=0.5;exitDx=0;exitDy=0;entryX=1;entryY=0.75;entryDx=0;entryDy=0;" parent="1" source="OKex5-OhVl83uTOGitW6-50" target="OKex5-OhVl83uTOGitW6-11" edge="1">
          <mxGeometry relative="1" as="geometry" />
        </mxCell>
        <mxCell id="OKex5-OhVl83uTOGitW6-50" value="ID" style="ellipse;whiteSpace=wrap;html=1;" parent="1" vertex="1">
          <mxGeometry x="395" y="150" width="85" height="50" as="geometry" />
        </mxCell>
        <mxCell id="OKex5-OhVl83uTOGitW6-51" value="nombre" style="ellipse;whiteSpace=wrap;html=1;" parent="1" vertex="1">
          <mxGeometry x="-220" y="330" width="85" height="50" as="geometry" />
        </mxCell>
        <mxCell id="OKex5-OhVl83uTOGitW6-52" value="descripcion" style="ellipse;whiteSpace=wrap;html=1;" parent="1" vertex="1">
          <mxGeometry x="-220" y="400" width="85" height="50" as="geometry" />
        </mxCell>
        <mxCell id="Gf0CT0m8p-BDc-EZLJfD-26" style="rounded=0;orthogonalLoop=1;jettySize=auto;html=1;exitX=0.5;exitY=0;exitDx=0;exitDy=0;entryX=0.5;entryY=1;entryDx=0;entryDy=0;" parent="1" source="OKex5-OhVl83uTOGitW6-53" target="OKex5-OhVl83uTOGitW6-3" edge="1">
          <mxGeometry relative="1" as="geometry" />
        </mxCell>
        <mxCell id="OKex5-OhVl83uTOGitW6-53" value="cuota" style="ellipse;whiteSpace=wrap;html=1;" parent="1" vertex="1">
          <mxGeometry x="52.5" y="645" width="85" height="50" as="geometry" />
        </mxCell>
        <mxCell id="OKex5-OhVl83uTOGitW6-54" value="edad" style="ellipse;whiteSpace=wrap;html=1;" parent="1" vertex="1">
          <mxGeometry x="200" y="-40" width="85" height="50" as="geometry" />
        </mxCell>
        <mxCell id="OKex5-OhVl83uTOGitW6-55" value="telefono" style="ellipse;whiteSpace=wrap;html=1;" parent="1" vertex="1">
          <mxGeometry x="315" y="-40" width="85" height="50" as="geometry" />
        </mxCell>
        <mxCell id="OKex5-OhVl83uTOGitW6-56" value="ID destino" style="ellipse;whiteSpace=wrap;html=1;" parent="1" vertex="1">
          <mxGeometry x="295" y="680" width="85" height="50" as="geometry" />
        </mxCell>
        <mxCell id="Gf0CT0m8p-BDc-EZLJfD-8" style="rounded=0;orthogonalLoop=1;jettySize=auto;html=1;exitX=1;exitY=0;exitDx=0;exitDy=0;entryX=0.25;entryY=1;entryDx=0;entryDy=0;" parent="1" source="OKex5-OhVl83uTOGitW6-57" target="OKex5-OhVl83uTOGitW6-4" edge="1">
          <mxGeometry relative="1" as="geometry" />
        </mxCell>
        <mxCell id="OKex5-OhVl83uTOGitW6-57" value="ID ruta" style="ellipse;whiteSpace=wrap;html=1;" parent="1" vertex="1">
          <mxGeometry x="414" y="800" width="85" height="50" as="geometry" />
        </mxCell>
        <mxCell id="Gf0CT0m8p-BDc-EZLJfD-15" style="rounded=0;orthogonalLoop=1;jettySize=auto;html=1;exitX=0.5;exitY=0;exitDx=0;exitDy=0;entryX=0.25;entryY=1;entryDx=0;entryDy=0;" parent="1" source="OKex5-OhVl83uTOGitW6-58" target="OKex5-OhVl83uTOGitW6-12" edge="1">
          <mxGeometry relative="1" as="geometry" />
        </mxCell>
        <mxCell id="OKex5-OhVl83uTOGitW6-58" value="direccion" style="ellipse;whiteSpace=wrap;html=1;" parent="1" vertex="1">
          <mxGeometry x="-242.5" y="900" width="85" height="50" as="geometry" />
        </mxCell>
        <mxCell id="OKex5-OhVl83uTOGitW6-59" value="ID" style="ellipse;whiteSpace=wrap;html=1;" parent="1" vertex="1">
          <mxGeometry x="801" y="78" width="85" height="50" as="geometry" />
        </mxCell>
        <mxCell id="OKex5-OhVl83uTOGitW6-60" value="horas tardadas" style="ellipse;whiteSpace=wrap;html=1;" parent="1" vertex="1">
          <mxGeometry x="861" y="288" width="85" height="50" as="geometry" />
        </mxCell>
        <mxCell id="yTAIwJ2hvmFpRWH2Tt7q-9" style="rounded=0;orthogonalLoop=1;jettySize=auto;html=1;exitX=0;exitY=0.5;exitDx=0;exitDy=0;entryX=1;entryY=0.75;entryDx=0;entryDy=0;" edge="1" parent="1" source="OKex5-OhVl83uTOGitW6-61" target="OKex5-OhVl83uTOGitW6-8">
          <mxGeometry relative="1" as="geometry" />
        </mxCell>
        <mxCell id="OKex5-OhVl83uTOGitW6-61" value="costo generado&amp;nbsp;" style="ellipse;whiteSpace=wrap;html=1;" parent="1" vertex="1">
          <mxGeometry x="1021" y="213" width="85" height="50" as="geometry" />
        </mxCell>
        <mxCell id="OKex5-OhVl83uTOGitW6-62" value="password" style="ellipse;whiteSpace=wrap;html=1;" parent="1" vertex="1">
          <mxGeometry x="140" y="250" width="85" height="50" as="geometry" />
        </mxCell>
        <mxCell id="OKex5-OhVl83uTOGitW6-87" style="rounded=0;orthogonalLoop=1;jettySize=auto;html=1;exitX=1;exitY=0;exitDx=0;exitDy=0;entryX=0;entryY=1;entryDx=0;entryDy=0;" parent="1" source="OKex5-OhVl83uTOGitW6-63" target="OKex5-OhVl83uTOGitW6-11" edge="1">
          <mxGeometry relative="1" as="geometry" />
        </mxCell>
        <mxCell id="OKex5-OhVl83uTOGitW6-63" value="username" style="ellipse;whiteSpace=wrap;html=1;" parent="1" vertex="1">
          <mxGeometry x="70" y="190" width="85" height="50" as="geometry" />
        </mxCell>
        <mxCell id="OKex5-OhVl83uTOGitW6-112" style="rounded=0;orthogonalLoop=1;jettySize=auto;html=1;exitX=0;exitY=0;exitDx=0;exitDy=0;entryX=1;entryY=0.75;entryDx=0;entryDy=0;" parent="1" source="OKex5-OhVl83uTOGitW6-64" target="OKex5-OhVl83uTOGitW6-9" edge="1">
          <mxGeometry relative="1" as="geometry" />
        </mxCell>
        <mxCell id="OKex5-OhVl83uTOGitW6-64" value="Tarifa local&amp;nbsp;" style="ellipse;whiteSpace=wrap;html=1;" parent="1" vertex="1">
          <mxGeometry x="755" y="-215" width="85" height="50" as="geometry" />
        </mxCell>
        <mxCell id="yTAIwJ2hvmFpRWH2Tt7q-8" style="rounded=0;orthogonalLoop=1;jettySize=auto;html=1;exitX=0;exitY=1;exitDx=0;exitDy=0;entryX=1;entryY=0.5;entryDx=0;entryDy=0;" edge="1" parent="1" source="OKex5-OhVl83uTOGitW6-66" target="OKex5-OhVl83uTOGitW6-8">
          <mxGeometry relative="1" as="geometry" />
        </mxCell>
        <mxCell id="OKex5-OhVl83uTOGitW6-66" value="fecha entrada" style="ellipse;whiteSpace=wrap;html=1;" parent="1" vertex="1">
          <mxGeometry x="1006" y="138" width="85" height="50" as="geometry" />
        </mxCell>
        <mxCell id="OKex5-OhVl83uTOGitW6-67" value="moneda" style="ellipse;whiteSpace=wrap;html=1;" parent="1" vertex="1">
          <mxGeometry x="966" y="278" width="85" height="50" as="geometry" />
        </mxCell>
        <mxCell id="OKex5-OhVl83uTOGitW6-68" value="moneda" style="ellipse;whiteSpace=wrap;html=1;" parent="1" vertex="1">
          <mxGeometry x="755" y="-295" width="85" height="50" as="geometry" />
        </mxCell>
        <mxCell id="OKex5-OhVl83uTOGitW6-69" value="ID tarifa" style="ellipse;whiteSpace=wrap;html=1;" parent="1" vertex="1">
          <mxGeometry x="630" y="-335" width="85" height="50" as="geometry" />
        </mxCell>
        <mxCell id="OKex5-OhVl83uTOGitW6-115" style="rounded=0;orthogonalLoop=1;jettySize=auto;html=1;exitX=0.5;exitY=1;exitDx=0;exitDy=0;entryX=0;entryY=0.25;entryDx=0;entryDy=0;" parent="1" source="OKex5-OhVl83uTOGitW6-70" target="OKex5-OhVl83uTOGitW6-9" edge="1">
          <mxGeometry relative="1" as="geometry" />
        </mxCell>
        <mxCell id="OKex5-OhVl83uTOGitW6-70" value="ID" style="ellipse;whiteSpace=wrap;html=1;" parent="1" vertex="1">
          <mxGeometry x="510" y="-315" width="85" height="50" as="geometry" />
        </mxCell>
        <mxCell id="OKex5-OhVl83uTOGitW6-71" value="nombre" style="ellipse;whiteSpace=wrap;html=1;" parent="1" vertex="1">
          <mxGeometry x="377.5" y="220" width="85" height="50" as="geometry" />
        </mxCell>
        <mxCell id="OKex5-OhVl83uTOGitW6-89" style="rounded=0;orthogonalLoop=1;jettySize=auto;html=1;exitX=1;exitY=0.5;exitDx=0;exitDy=0;" parent="1" source="OKex5-OhVl83uTOGitW6-72" target="OKex5-OhVl83uTOGitW6-11" edge="1">
          <mxGeometry relative="1" as="geometry" />
        </mxCell>
        <mxCell id="OKex5-OhVl83uTOGitW6-72" value="rol" style="ellipse;whiteSpace=wrap;html=1;" parent="1" vertex="1">
          <mxGeometry x="70" y="60" width="85" height="50" as="geometry" />
        </mxCell>
        <mxCell id="OKex5-OhVl83uTOGitW6-73" value="limite paquete" style="ellipse;whiteSpace=wrap;html=1;" parent="1" vertex="1">
          <mxGeometry x="527.5" y="-105" width="85" height="50" as="geometry" />
        </mxCell>
        <mxCell id="OKex5-OhVl83uTOGitW6-88" style="rounded=0;orthogonalLoop=1;jettySize=auto;html=1;exitX=1;exitY=0.5;exitDx=0;exitDy=0;entryX=0.01;entryY=0.656;entryDx=0;entryDy=0;entryPerimeter=0;" parent="1" source="OKex5-OhVl83uTOGitW6-39" target="OKex5-OhVl83uTOGitW6-11" edge="1">
          <mxGeometry relative="1" as="geometry" />
        </mxCell>
        <mxCell id="OKex5-OhVl83uTOGitW6-90" style="rounded=0;orthogonalLoop=1;jettySize=auto;html=1;exitX=1;exitY=1;exitDx=0;exitDy=0;entryX=0.201;entryY=0.035;entryDx=0;entryDy=0;entryPerimeter=0;" parent="1" source="OKex5-OhVl83uTOGitW6-22" target="OKex5-OhVl83uTOGitW6-11" edge="1">
          <mxGeometry relative="1" as="geometry" />
        </mxCell>
        <mxCell id="OKex5-OhVl83uTOGitW6-91" style="rounded=0;orthogonalLoop=1;jettySize=auto;html=1;exitX=0.5;exitY=1;exitDx=0;exitDy=0;entryX=0.702;entryY=0.021;entryDx=0;entryDy=0;entryPerimeter=0;" parent="1" source="OKex5-OhVl83uTOGitW6-54" target="OKex5-OhVl83uTOGitW6-11" edge="1">
          <mxGeometry relative="1" as="geometry" />
        </mxCell>
        <mxCell id="OKex5-OhVl83uTOGitW6-92" style="rounded=0;orthogonalLoop=1;jettySize=auto;html=1;exitX=0.5;exitY=1;exitDx=0;exitDy=0;entryX=0.818;entryY=-0.048;entryDx=0;entryDy=0;entryPerimeter=0;" parent="1" source="OKex5-OhVl83uTOGitW6-55" target="OKex5-OhVl83uTOGitW6-11" edge="1">
          <mxGeometry relative="1" as="geometry" />
        </mxCell>
        <mxCell id="OKex5-OhVl83uTOGitW6-94" style="rounded=0;orthogonalLoop=1;jettySize=auto;html=1;exitX=0.5;exitY=0;exitDx=0;exitDy=0;entryX=0.354;entryY=1.042;entryDx=0;entryDy=0;entryPerimeter=0;" parent="1" source="OKex5-OhVl83uTOGitW6-62" target="OKex5-OhVl83uTOGitW6-11" edge="1">
          <mxGeometry relative="1" as="geometry" />
        </mxCell>
        <mxCell id="OKex5-OhVl83uTOGitW6-95" style="rounded=0;orthogonalLoop=1;jettySize=auto;html=1;exitX=0.5;exitY=0;exitDx=0;exitDy=0;entryX=0.6;entryY=1.042;entryDx=0;entryDy=0;entryPerimeter=0;" parent="1" source="OKex5-OhVl83uTOGitW6-71" target="OKex5-OhVl83uTOGitW6-11" edge="1">
          <mxGeometry relative="1" as="geometry" />
        </mxCell>
        <mxCell id="OKex5-OhVl83uTOGitW6-96" value="tener" style="rhombus;whiteSpace=wrap;html=1;strokeColor=#67AB9F;" parent="1" vertex="1">
          <mxGeometry x="-80" y="98" width="80" height="60" as="geometry" />
        </mxCell>
        <mxCell id="OKex5-OhVl83uTOGitW6-99" style="rounded=0;orthogonalLoop=1;jettySize=auto;html=1;exitX=1;exitY=1;exitDx=0;exitDy=0;entryX=0.167;entryY=-0.075;entryDx=0;entryDy=0;entryPerimeter=0;" parent="1" source="OKex5-OhVl83uTOGitW6-37" target="OKex5-OhVl83uTOGitW6-10" edge="1">
          <mxGeometry relative="1" as="geometry" />
        </mxCell>
        <mxCell id="OKex5-OhVl83uTOGitW6-100" style="rounded=0;orthogonalLoop=1;jettySize=auto;html=1;exitX=1;exitY=0.5;exitDx=0;exitDy=0;entryX=-0.025;entryY=0.628;entryDx=0;entryDy=0;entryPerimeter=0;" parent="1" source="OKex5-OhVl83uTOGitW6-51" target="OKex5-OhVl83uTOGitW6-10" edge="1">
          <mxGeometry relative="1" as="geometry" />
        </mxCell>
        <mxCell id="OKex5-OhVl83uTOGitW6-101" style="rounded=0;orthogonalLoop=1;jettySize=auto;html=1;exitX=1;exitY=0.5;exitDx=0;exitDy=0;entryX=0.075;entryY=0.973;entryDx=0;entryDy=0;entryPerimeter=0;" parent="1" source="OKex5-OhVl83uTOGitW6-52" target="OKex5-OhVl83uTOGitW6-10" edge="1">
          <mxGeometry relative="1" as="geometry" />
        </mxCell>
        <mxCell id="OKex5-OhVl83uTOGitW6-102" style="rounded=0;orthogonalLoop=1;jettySize=auto;html=1;exitX=1;exitY=0.5;exitDx=0;exitDy=0;entryX=0.443;entryY=1.042;entryDx=0;entryDy=0;entryPerimeter=0;" parent="1" source="OKex5-OhVl83uTOGitW6-36" target="OKex5-OhVl83uTOGitW6-10" edge="1">
          <mxGeometry relative="1" as="geometry" />
        </mxCell>
        <mxCell id="OKex5-OhVl83uTOGitW6-103" style="edgeStyle=orthogonalEdgeStyle;rounded=0;orthogonalLoop=1;jettySize=auto;html=1;exitX=1;exitY=0.5;exitDx=0;exitDy=0;entryX=0.026;entryY=0.352;entryDx=0;entryDy=0;entryPerimeter=0;endArrow=none;endFill=0;fillColor=#f8cecc;strokeColor=#67AB9F;" parent="1" source="OKex5-OhVl83uTOGitW6-96" target="OKex5-OhVl83uTOGitW6-11" edge="1">
          <mxGeometry relative="1" as="geometry" />
        </mxCell>
        <mxCell id="OKex5-OhVl83uTOGitW6-107" value="*" style="edgeLabel;html=1;align=center;verticalAlign=middle;resizable=0;points=[];" parent="OKex5-OhVl83uTOGitW6-103" vertex="1" connectable="0">
          <mxGeometry x="0.7478" y="1" relative="1" as="geometry">
            <mxPoint as="offset" />
          </mxGeometry>
        </mxCell>
        <mxCell id="OKex5-OhVl83uTOGitW6-104" style="rounded=0;orthogonalLoop=1;jettySize=auto;html=1;exitX=0.5;exitY=1;exitDx=0;exitDy=0;entryX=0.397;entryY=-0.02;entryDx=0;entryDy=0;entryPerimeter=0;endArrow=none;endFill=0;fillColor=#f8cecc;strokeColor=#67AB9F;" parent="1" source="OKex5-OhVl83uTOGitW6-96" target="OKex5-OhVl83uTOGitW6-10" edge="1">
          <mxGeometry relative="1" as="geometry" />
        </mxCell>
        <mxCell id="OKex5-OhVl83uTOGitW6-105" value="1" style="edgeLabel;html=1;align=center;verticalAlign=middle;resizable=0;points=[];" parent="OKex5-OhVl83uTOGitW6-104" vertex="1" connectable="0">
          <mxGeometry x="0.8694" y="1" relative="1" as="geometry">
            <mxPoint as="offset" />
          </mxGeometry>
        </mxCell>
        <mxCell id="OKex5-OhVl83uTOGitW6-106" value="1" style="edgeLabel;html=1;align=center;verticalAlign=middle;resizable=0;points=[];" parent="OKex5-OhVl83uTOGitW6-104" vertex="1" connectable="0">
          <mxGeometry x="-0.714" y="2" relative="1" as="geometry">
            <mxPoint as="offset" />
          </mxGeometry>
        </mxCell>
        <mxCell id="OKex5-OhVl83uTOGitW6-108" value="1" style="text;html=1;align=center;verticalAlign=middle;resizable=0;points=[];autosize=1;strokeColor=none;fillColor=none;" parent="1" vertex="1">
          <mxGeometry x="-5" y="108" width="30" height="30" as="geometry" />
        </mxCell>
        <mxCell id="OKex5-OhVl83uTOGitW6-111" style="rounded=0;orthogonalLoop=1;jettySize=auto;html=1;exitX=0.5;exitY=0;exitDx=0;exitDy=0;entryX=0.333;entryY=1;entryDx=0;entryDy=0;entryPerimeter=0;" parent="1" source="OKex5-OhVl83uTOGitW6-73" target="OKex5-OhVl83uTOGitW6-9" edge="1">
          <mxGeometry relative="1" as="geometry" />
        </mxCell>
        <mxCell id="OKex5-OhVl83uTOGitW6-113" style="rounded=0;orthogonalLoop=1;jettySize=auto;html=1;exitX=0;exitY=0.5;exitDx=0;exitDy=0;entryX=1.019;entryY=0.403;entryDx=0;entryDy=0;entryPerimeter=0;" parent="1" source="OKex5-OhVl83uTOGitW6-68" target="OKex5-OhVl83uTOGitW6-9" edge="1">
          <mxGeometry relative="1" as="geometry" />
        </mxCell>
        <mxCell id="OKex5-OhVl83uTOGitW6-114" style="rounded=0;orthogonalLoop=1;jettySize=auto;html=1;exitX=0.5;exitY=1;exitDx=0;exitDy=0;entryX=0.611;entryY=-0.045;entryDx=0;entryDy=0;entryPerimeter=0;" parent="1" source="OKex5-OhVl83uTOGitW6-69" target="OKex5-OhVl83uTOGitW6-9" edge="1">
          <mxGeometry relative="1" as="geometry" />
        </mxCell>
        <mxCell id="OKex5-OhVl83uTOGitW6-118" value="" style="rounded=0;orthogonalLoop=1;jettySize=auto;html=1;exitX=1;exitY=0.5;exitDx=0;exitDy=0;endArrow=none;endFill=0;fillColor=#f8cecc;strokeColor=#67AB9F;" parent="1" source="OKex5-OhVl83uTOGitW6-11" target="OKex5-OhVl83uTOGitW6-117" edge="1">
          <mxGeometry relative="1" as="geometry">
            <mxPoint x="590" y="135.20689655172418" as="targetPoint" />
            <mxPoint x="320" y="135" as="sourcePoint" />
          </mxGeometry>
        </mxCell>
        <mxCell id="OKex5-OhVl83uTOGitW6-119" style="rounded=0;orthogonalLoop=1;jettySize=auto;html=1;entryX=0;entryY=0.5;entryDx=0;entryDy=0;endArrow=none;endFill=0;fillColor=#f8cecc;strokeColor=#67AB9F;exitX=1;exitY=0.5;exitDx=0;exitDy=0;" parent="1" source="OKex5-OhVl83uTOGitW6-117" target="OKex5-OhVl83uTOGitW6-9" edge="1">
          <mxGeometry relative="1" as="geometry">
            <mxPoint x="610" y="170" as="sourcePoint" />
          </mxGeometry>
        </mxCell>
        <mxCell id="OKex5-OhVl83uTOGitW6-117" value="tiene" style="rhombus;whiteSpace=wrap;html=1;strokeColor=#67AB9F;" parent="1" vertex="1">
          <mxGeometry x="530" y="105" width="80" height="60" as="geometry" />
        </mxCell>
        <mxCell id="OKex5-OhVl83uTOGitW6-120" style="edgeStyle=orthogonalEdgeStyle;rounded=0;orthogonalLoop=1;jettySize=auto;html=1;exitX=0.5;exitY=1;exitDx=0;exitDy=0;" parent="1" source="OKex5-OhVl83uTOGitW6-34" target="OKex5-OhVl83uTOGitW6-34" edge="1">
          <mxGeometry relative="1" as="geometry" />
        </mxCell>
        <mxCell id="yTAIwJ2hvmFpRWH2Tt7q-42" style="rounded=0;orthogonalLoop=1;jettySize=auto;html=1;exitX=0;exitY=0.5;exitDx=0;exitDy=0;entryX=1;entryY=0.5;entryDx=0;entryDy=0;" edge="1" parent="1" source="OKex5-OhVl83uTOGitW6-128" target="OKex5-OhVl83uTOGitW6-5">
          <mxGeometry relative="1" as="geometry" />
        </mxCell>
        <mxCell id="OKex5-OhVl83uTOGitW6-128" value="ID ruta" style="ellipse;whiteSpace=wrap;html=1;" parent="1" vertex="1">
          <mxGeometry x="317.5" y="1010" width="107.5" height="75" as="geometry" />
        </mxCell>
        <mxCell id="OKex5-OhVl83uTOGitW6-132" value="estado" style="ellipse;whiteSpace=wrap;html=1;" parent="1" vertex="1">
          <mxGeometry x="-42.5" y="1010" width="115" height="70" as="geometry" />
        </mxCell>
        <mxCell id="OKex5-OhVl83uTOGitW6-136" value="limite de carga" style="ellipse;whiteSpace=wrap;html=1;" parent="1" vertex="1">
          <mxGeometry x="197.5" y="1140" width="107.5" height="60" as="geometry" />
        </mxCell>
        <mxCell id="OKex5-OhVl83uTOGitW6-137" value="ID destino&amp;nbsp;" style="ellipse;whiteSpace=wrap;html=1;" parent="1" vertex="1">
          <mxGeometry x="37.5" y="1120" width="112.5" height="70" as="geometry" />
        </mxCell>
        <mxCell id="OKex5-OhVl83uTOGitW6-138" value="" style="rounded=0;whiteSpace=wrap;html=1;" parent="1" vertex="1">
          <mxGeometry x="770" y="1080" width="120" height="60" as="geometry" />
        </mxCell>
        <mxCell id="Gf0CT0m8p-BDc-EZLJfD-5" style="rounded=0;orthogonalLoop=1;jettySize=auto;html=1;exitX=0;exitY=0.5;exitDx=0;exitDy=0;entryX=0.819;entryY=0.965;entryDx=0;entryDy=0;entryPerimeter=0;" parent="1" source="OKex5-OhVl83uTOGitW6-24" target="OKex5-OhVl83uTOGitW6-4" edge="1">
          <mxGeometry relative="1" as="geometry" />
        </mxCell>
        <mxCell id="Gf0CT0m8p-BDc-EZLJfD-11" style="rounded=0;orthogonalLoop=1;jettySize=auto;html=1;exitX=1;exitY=0.5;exitDx=0;exitDy=0;entryX=0;entryY=0.75;entryDx=0;entryDy=0;" parent="1" source="OKex5-OhVl83uTOGitW6-56" target="OKex5-OhVl83uTOGitW6-4" edge="1">
          <mxGeometry relative="1" as="geometry" />
        </mxCell>
        <mxCell id="Gf0CT0m8p-BDc-EZLJfD-28" value="ID recepcionista" style="ellipse;whiteSpace=wrap;html=1;" parent="1" vertex="1">
          <mxGeometry x="1540" y="560" width="101.57" height="55" as="geometry" />
        </mxCell>
        <mxCell id="Gf0CT0m8p-BDc-EZLJfD-38" style="rounded=0;orthogonalLoop=1;jettySize=auto;html=1;exitX=0.5;exitY=0;exitDx=0;exitDy=0;entryX=0.5;entryY=1;entryDx=0;entryDy=0;" parent="1" source="Gf0CT0m8p-BDc-EZLJfD-29" target="OKex5-OhVl83uTOGitW6-2" edge="1">
          <mxGeometry relative="1" as="geometry" />
        </mxCell>
        <mxCell id="Gf0CT0m8p-BDc-EZLJfD-29" value="ID cliente" style="ellipse;whiteSpace=wrap;html=1;" parent="1" vertex="1">
          <mxGeometry x="1400" y="560" width="101.57" height="70" as="geometry" />
        </mxCell>
        <mxCell id="Gf0CT0m8p-BDc-EZLJfD-39" style="rounded=0;orthogonalLoop=1;jettySize=auto;html=1;exitX=0.587;exitY=0.05;exitDx=0;exitDy=0;entryX=0;entryY=0.5;entryDx=0;entryDy=0;exitPerimeter=0;" parent="1" target="OKex5-OhVl83uTOGitW6-2" edge="1" source="Gf0CT0m8p-BDc-EZLJfD-30">
          <mxGeometry relative="1" as="geometry">
            <mxPoint x="1328.9964068711927" y="526.7157287525388" as="sourcePoint" />
          </mxGeometry>
        </mxCell>
        <mxCell id="Gf0CT0m8p-BDc-EZLJfD-30" value="ID" style="ellipse;whiteSpace=wrap;html=1;" parent="1" vertex="1">
          <mxGeometry x="1292.57" y="558" width="100" height="60" as="geometry" />
        </mxCell>
        <mxCell id="Gf0CT0m8p-BDc-EZLJfD-36" style="rounded=0;orthogonalLoop=1;jettySize=auto;html=1;exitX=-0.023;exitY=0.401;exitDx=0;exitDy=0;entryX=1;entryY=0.75;entryDx=0;entryDy=0;exitPerimeter=0;" parent="1" source="Gf0CT0m8p-BDc-EZLJfD-31" target="OKex5-OhVl83uTOGitW6-2" edge="1">
          <mxGeometry relative="1" as="geometry">
            <mxPoint x="1559.5700000000002" y="475" as="sourcePoint" />
          </mxGeometry>
        </mxCell>
        <mxCell id="Gf0CT0m8p-BDc-EZLJfD-31" value="Fecha" style="ellipse;whiteSpace=wrap;html=1;" parent="1" vertex="1">
          <mxGeometry x="1597.57" y="480" width="110" height="65" as="geometry" />
        </mxCell>
        <mxCell id="Gf0CT0m8p-BDc-EZLJfD-35" style="rounded=0;orthogonalLoop=1;jettySize=auto;html=1;exitX=0;exitY=1;exitDx=0;exitDy=0;entryX=1;entryY=0.5;entryDx=0;entryDy=0;" parent="1" source="Gf0CT0m8p-BDc-EZLJfD-32" target="OKex5-OhVl83uTOGitW6-2" edge="1">
          <mxGeometry relative="1" as="geometry" />
        </mxCell>
        <mxCell id="Gf0CT0m8p-BDc-EZLJfD-32" value="sub-total" style="ellipse;whiteSpace=wrap;html=1;" parent="1" vertex="1">
          <mxGeometry x="1597.57" y="400" width="101.57" height="60" as="geometry" />
        </mxCell>
        <mxCell id="Gf0CT0m8p-BDc-EZLJfD-34" style="rounded=0;orthogonalLoop=1;jettySize=auto;html=1;exitX=0.5;exitY=1;exitDx=0;exitDy=0;" parent="1" source="Gf0CT0m8p-BDc-EZLJfD-33" target="OKex5-OhVl83uTOGitW6-2" edge="1">
          <mxGeometry relative="1" as="geometry" />
        </mxCell>
        <mxCell id="Gf0CT0m8p-BDc-EZLJfD-33" value="Total" style="ellipse;whiteSpace=wrap;html=1;" parent="1" vertex="1">
          <mxGeometry x="1540" y="330" width="101.57" height="60" as="geometry" />
        </mxCell>
        <mxCell id="Gf0CT0m8p-BDc-EZLJfD-37" style="rounded=0;orthogonalLoop=1;jettySize=auto;html=1;exitX=0;exitY=0;exitDx=0;exitDy=0;entryX=0.897;entryY=0.969;entryDx=0;entryDy=0;entryPerimeter=0;" parent="1" source="Gf0CT0m8p-BDc-EZLJfD-28" target="OKex5-OhVl83uTOGitW6-2" edge="1">
          <mxGeometry relative="1" as="geometry" />
        </mxCell>
        <mxCell id="Gf0CT0m8p-BDc-EZLJfD-44" style="rounded=0;orthogonalLoop=1;jettySize=auto;html=1;exitX=0;exitY=1;exitDx=0;exitDy=0;entryX=1;entryY=0.5;entryDx=0;entryDy=0;" parent="1" source="Gf0CT0m8p-BDc-EZLJfD-40" target="OKex5-OhVl83uTOGitW6-6" edge="1">
          <mxGeometry relative="1" as="geometry" />
        </mxCell>
        <mxCell id="Gf0CT0m8p-BDc-EZLJfD-40" value="ID paquete" style="ellipse;whiteSpace=wrap;html=1;" parent="1" vertex="1">
          <mxGeometry x="1462.57" y="-5" width="120" height="80" as="geometry" />
        </mxCell>
        <mxCell id="Gf0CT0m8p-BDc-EZLJfD-43" style="rounded=0;orthogonalLoop=1;jettySize=auto;html=1;exitX=0.5;exitY=1;exitDx=0;exitDy=0;entryX=0.5;entryY=0;entryDx=0;entryDy=0;" parent="1" source="Gf0CT0m8p-BDc-EZLJfD-41" target="OKex5-OhVl83uTOGitW6-6" edge="1">
          <mxGeometry relative="1" as="geometry" />
        </mxCell>
        <mxCell id="Gf0CT0m8p-BDc-EZLJfD-41" value="ID factura" style="ellipse;whiteSpace=wrap;html=1;" parent="1" vertex="1">
          <mxGeometry x="1312.57" y="-20" width="120" height="80" as="geometry" />
        </mxCell>
        <mxCell id="Gf0CT0m8p-BDc-EZLJfD-45" style="rounded=0;orthogonalLoop=1;jettySize=auto;html=1;exitX=0.5;exitY=1;exitDx=0;exitDy=0;entryX=0;entryY=0.5;entryDx=0;entryDy=0;" parent="1" source="Gf0CT0m8p-BDc-EZLJfD-42" target="OKex5-OhVl83uTOGitW6-6" edge="1">
          <mxGeometry relative="1" as="geometry" />
        </mxCell>
        <mxCell id="Gf0CT0m8p-BDc-EZLJfD-42" value="ID&amp;nbsp;" style="ellipse;whiteSpace=wrap;html=1;" parent="1" vertex="1">
          <mxGeometry x="1172.57" y="10" width="120" height="80" as="geometry" />
        </mxCell>
        <mxCell id="Gf0CT0m8p-BDc-EZLJfD-61" style="rounded=0;orthogonalLoop=1;jettySize=auto;html=1;exitX=0.5;exitY=1;exitDx=0;exitDy=0;entryX=0.5;entryY=0;entryDx=0;entryDy=0;" parent="1" source="Gf0CT0m8p-BDc-EZLJfD-55" target="OKex5-OhVl83uTOGitW6-138" edge="1">
          <mxGeometry relative="1" as="geometry" />
        </mxCell>
        <mxCell id="Gf0CT0m8p-BDc-EZLJfD-55" value="fecha salida" style="ellipse;whiteSpace=wrap;html=1;" parent="1" vertex="1">
          <mxGeometry x="785" y="970" width="85" height="50" as="geometry" />
        </mxCell>
        <mxCell id="Gf0CT0m8p-BDc-EZLJfD-66" style="rounded=0;orthogonalLoop=1;jettySize=auto;html=1;exitX=0.5;exitY=1;exitDx=0;exitDy=0;entryX=1;entryY=0.5;entryDx=0;entryDy=0;" parent="1" source="Gf0CT0m8p-BDc-EZLJfD-56" target="OKex5-OhVl83uTOGitW6-138" edge="1">
          <mxGeometry relative="1" as="geometry" />
        </mxCell>
        <mxCell id="Gf0CT0m8p-BDc-EZLJfD-56" value="fecha entrada" style="ellipse;whiteSpace=wrap;html=1;" parent="1" vertex="1">
          <mxGeometry x="870" y="980" width="85" height="50" as="geometry" />
        </mxCell>
        <mxCell id="Gf0CT0m8p-BDc-EZLJfD-57" value="ID paquete" style="ellipse;whiteSpace=wrap;html=1;" parent="1" vertex="1">
          <mxGeometry x="742.5" y="1200" width="85" height="50" as="geometry" />
        </mxCell>
        <mxCell id="Gf0CT0m8p-BDc-EZLJfD-62" style="rounded=0;orthogonalLoop=1;jettySize=auto;html=1;exitX=1;exitY=1;exitDx=0;exitDy=0;entryX=0;entryY=0.25;entryDx=0;entryDy=0;" parent="1" source="Gf0CT0m8p-BDc-EZLJfD-58" target="OKex5-OhVl83uTOGitW6-138" edge="1">
          <mxGeometry relative="1" as="geometry" />
        </mxCell>
        <mxCell id="Gf0CT0m8p-BDc-EZLJfD-58" value="ID" style="ellipse;whiteSpace=wrap;html=1;" parent="1" vertex="1">
          <mxGeometry x="622" y="1070" width="85" height="50" as="geometry" />
        </mxCell>
        <mxCell id="Gf0CT0m8p-BDc-EZLJfD-59" value="ID bodega" style="ellipse;whiteSpace=wrap;html=1;" parent="1" vertex="1">
          <mxGeometry x="630" y="1140" width="85" height="50" as="geometry" />
        </mxCell>
        <mxCell id="Gf0CT0m8p-BDc-EZLJfD-60" value="tipo accion" style="ellipse;whiteSpace=wrap;html=1;" parent="1" vertex="1">
          <mxGeometry x="890" y="1200" width="85" height="50" as="geometry" />
        </mxCell>
        <mxCell id="Gf0CT0m8p-BDc-EZLJfD-63" style="rounded=0;orthogonalLoop=1;jettySize=auto;html=1;exitX=1;exitY=0.5;exitDx=0;exitDy=0;entryX=-0.02;entryY=0.665;entryDx=0;entryDy=0;entryPerimeter=0;" parent="1" source="Gf0CT0m8p-BDc-EZLJfD-59" target="OKex5-OhVl83uTOGitW6-138" edge="1">
          <mxGeometry relative="1" as="geometry" />
        </mxCell>
        <mxCell id="Gf0CT0m8p-BDc-EZLJfD-64" style="rounded=0;orthogonalLoop=1;jettySize=auto;html=1;exitX=0.5;exitY=0;exitDx=0;exitDy=0;entryX=0.196;entryY=1.014;entryDx=0;entryDy=0;entryPerimeter=0;" parent="1" source="Gf0CT0m8p-BDc-EZLJfD-57" target="OKex5-OhVl83uTOGitW6-138" edge="1">
          <mxGeometry relative="1" as="geometry" />
        </mxCell>
        <mxCell id="Gf0CT0m8p-BDc-EZLJfD-65" style="rounded=0;orthogonalLoop=1;jettySize=auto;html=1;exitX=0;exitY=0;exitDx=0;exitDy=0;entryX=0.601;entryY=1.005;entryDx=0;entryDy=0;entryPerimeter=0;" parent="1" source="Gf0CT0m8p-BDc-EZLJfD-60" target="OKex5-OhVl83uTOGitW6-138" edge="1">
          <mxGeometry relative="1" as="geometry" />
        </mxCell>
        <mxCell id="Gf0CT0m8p-BDc-EZLJfD-73" style="rounded=0;orthogonalLoop=1;jettySize=auto;html=1;exitX=1;exitY=0;exitDx=0;exitDy=0;entryX=0;entryY=0.75;entryDx=0;entryDy=0;" parent="1" source="Gf0CT0m8p-BDc-EZLJfD-67" target="OKex5-OhVl83uTOGitW6-1" edge="1">
          <mxGeometry relative="1" as="geometry" />
        </mxCell>
        <mxCell id="Gf0CT0m8p-BDc-EZLJfD-67" value="ID recepcionista" style="ellipse;whiteSpace=wrap;html=1;" parent="1" vertex="1">
          <mxGeometry x="1078.5" y="935" width="85" height="50" as="geometry" />
        </mxCell>
        <mxCell id="yTAIwJ2hvmFpRWH2Tt7q-63" value="" style="rounded=0;orthogonalLoop=1;jettySize=auto;html=1;" edge="1" parent="1" source="Gf0CT0m8p-BDc-EZLJfD-68" target="OKex5-OhVl83uTOGitW6-1">
          <mxGeometry relative="1" as="geometry" />
        </mxCell>
        <mxCell id="Gf0CT0m8p-BDc-EZLJfD-68" value="ID" style="ellipse;whiteSpace=wrap;html=1;" parent="1" vertex="1">
          <mxGeometry x="1292.57" y="730" width="85" height="50" as="geometry" />
        </mxCell>
        <mxCell id="Gf0CT0m8p-BDc-EZLJfD-74" style="rounded=0;orthogonalLoop=1;jettySize=auto;html=1;exitX=0.5;exitY=0;exitDx=0;exitDy=0;" parent="1" source="Gf0CT0m8p-BDc-EZLJfD-69" target="OKex5-OhVl83uTOGitW6-1" edge="1">
          <mxGeometry relative="1" as="geometry" />
        </mxCell>
        <mxCell id="Gf0CT0m8p-BDc-EZLJfD-69" value="ID destino" style="ellipse;whiteSpace=wrap;html=1;" parent="1" vertex="1">
          <mxGeometry x="1190.07" y="970" width="85" height="50" as="geometry" />
        </mxCell>
        <mxCell id="Gf0CT0m8p-BDc-EZLJfD-75" style="rounded=0;orthogonalLoop=1;jettySize=auto;html=1;exitX=0.5;exitY=0;exitDx=0;exitDy=0;entryX=0.75;entryY=1;entryDx=0;entryDy=0;" parent="1" source="Gf0CT0m8p-BDc-EZLJfD-70" target="OKex5-OhVl83uTOGitW6-1" edge="1">
          <mxGeometry relative="1" as="geometry" />
        </mxCell>
        <mxCell id="Gf0CT0m8p-BDc-EZLJfD-70" value="estado" style="ellipse;whiteSpace=wrap;html=1;" parent="1" vertex="1">
          <mxGeometry x="1310.07" y="950" width="85" height="50" as="geometry" />
        </mxCell>
        <mxCell id="yTAIwJ2hvmFpRWH2Tt7q-10" style="rounded=0;orthogonalLoop=1;jettySize=auto;html=1;exitX=0;exitY=0;exitDx=0;exitDy=0;entryX=0.92;entryY=0.98;entryDx=0;entryDy=0;entryPerimeter=0;" edge="1" parent="1" source="OKex5-OhVl83uTOGitW6-67" target="OKex5-OhVl83uTOGitW6-8">
          <mxGeometry relative="1" as="geometry" />
        </mxCell>
        <mxCell id="yTAIwJ2hvmFpRWH2Tt7q-11" style="rounded=0;orthogonalLoop=1;jettySize=auto;html=1;exitX=0.5;exitY=0;exitDx=0;exitDy=0;entryX=0.673;entryY=0.98;entryDx=0;entryDy=0;entryPerimeter=0;" edge="1" parent="1" source="OKex5-OhVl83uTOGitW6-60" target="OKex5-OhVl83uTOGitW6-8">
          <mxGeometry relative="1" as="geometry" />
        </mxCell>
        <mxCell id="yTAIwJ2hvmFpRWH2Tt7q-12" style="rounded=0;orthogonalLoop=1;jettySize=auto;html=1;exitX=0.5;exitY=1;exitDx=0;exitDy=0;entryX=0.449;entryY=0.038;entryDx=0;entryDy=0;entryPerimeter=0;" edge="1" parent="1" source="OKex5-OhVl83uTOGitW6-59" target="OKex5-OhVl83uTOGitW6-8">
          <mxGeometry relative="1" as="geometry" />
        </mxCell>
        <mxCell id="yTAIwJ2hvmFpRWH2Tt7q-13" style="rounded=0;orthogonalLoop=1;jettySize=auto;html=1;exitX=1;exitY=1;exitDx=0;exitDy=0;entryX=0;entryY=0.417;entryDx=0;entryDy=0;entryPerimeter=0;" edge="1" parent="1" source="OKex5-OhVl83uTOGitW6-47" target="OKex5-OhVl83uTOGitW6-8">
          <mxGeometry relative="1" as="geometry" />
        </mxCell>
        <mxCell id="yTAIwJ2hvmFpRWH2Tt7q-15" style="rounded=0;orthogonalLoop=1;jettySize=auto;html=1;exitX=0.5;exitY=0;exitDx=0;exitDy=0;entryX=0.184;entryY=0.969;entryDx=0;entryDy=0;entryPerimeter=0;" edge="1" parent="1" source="OKex5-OhVl83uTOGitW6-49" target="OKex5-OhVl83uTOGitW6-8">
          <mxGeometry relative="1" as="geometry" />
        </mxCell>
        <mxCell id="yTAIwJ2hvmFpRWH2Tt7q-16" value="reginstrol punto de control" style="rhombus;whiteSpace=wrap;html=1;strokeColor=#67AB9F;" vertex="1" parent="1">
          <mxGeometry x="831" y="163" width="110" height="80" as="geometry" />
        </mxCell>
        <mxCell id="yTAIwJ2hvmFpRWH2Tt7q-61" style="edgeStyle=orthogonalEdgeStyle;rounded=0;orthogonalLoop=1;jettySize=auto;html=1;exitX=1;exitY=0.5;exitDx=0;exitDy=0;entryX=0;entryY=0.5;entryDx=0;entryDy=0;endArrow=none;endFill=0;strokeColor=#67AB9F;" edge="1" parent="1" source="yTAIwJ2hvmFpRWH2Tt7q-17" target="OKex5-OhVl83uTOGitW6-1">
          <mxGeometry relative="1" as="geometry" />
        </mxCell>
        <mxCell id="yTAIwJ2hvmFpRWH2Tt7q-17" value="registro bodega" style="rhombus;whiteSpace=wrap;html=1;strokeColor=#67AB9F;" vertex="1" parent="1">
          <mxGeometry x="765" y="1070" width="130" height="80" as="geometry" />
        </mxCell>
        <mxCell id="yTAIwJ2hvmFpRWH2Tt7q-18" value="detalle de factura" style="rhombus;whiteSpace=wrap;html=1;strokeColor=#67AB9F;" vertex="1" parent="1">
          <mxGeometry x="1320" y="100" width="120" height="80" as="geometry" />
        </mxCell>
        <mxCell id="yTAIwJ2hvmFpRWH2Tt7q-19" value="(1,M)" style="text;html=1;align=center;verticalAlign=middle;resizable=0;points=[];autosize=1;strokeColor=none;fillColor=none;" vertex="1" parent="1">
          <mxGeometry x="530" y="-237" width="50" height="30" as="geometry" />
        </mxCell>
        <mxCell id="yTAIwJ2hvmFpRWH2Tt7q-20" value="(1,1)" style="text;html=1;align=center;verticalAlign=middle;resizable=0;points=[];autosize=1;strokeColor=none;fillColor=none;" vertex="1" parent="1">
          <mxGeometry x="355" y="108" width="50" height="30" as="geometry" />
        </mxCell>
        <mxCell id="yTAIwJ2hvmFpRWH2Tt7q-22" style="rounded=0;orthogonalLoop=1;jettySize=auto;html=1;exitX=0.5;exitY=0;exitDx=0;exitDy=0;entryX=0.636;entryY=0.975;entryDx=0;entryDy=0;entryPerimeter=0;endArrow=none;endFill=0;strokeColor=#67AB9F;" edge="1" parent="1" source="yTAIwJ2hvmFpRWH2Tt7q-16" target="OKex5-OhVl83uTOGitW6-9">
          <mxGeometry relative="1" as="geometry">
            <Array as="points">
              <mxPoint x="910" y="20" />
            </Array>
          </mxGeometry>
        </mxCell>
        <mxCell id="yTAIwJ2hvmFpRWH2Tt7q-24" value="(1,1)" style="text;html=1;align=center;verticalAlign=middle;resizable=0;points=[];autosize=1;strokeColor=none;fillColor=none;" vertex="1" parent="1">
          <mxGeometry x="759" y="178" width="50" height="30" as="geometry" />
        </mxCell>
        <mxCell id="yTAIwJ2hvmFpRWH2Tt7q-25" value="(1,1)" style="text;html=1;align=center;verticalAlign=middle;resizable=0;points=[];autosize=1;strokeColor=none;fillColor=none;" vertex="1" parent="1">
          <mxGeometry x="657" y="-177" width="50" height="30" as="geometry" />
        </mxCell>
        <mxCell id="yTAIwJ2hvmFpRWH2Tt7q-26" value="(0,M)" style="text;html=1;align=center;verticalAlign=middle;resizable=0;points=[];autosize=1;strokeColor=none;fillColor=none;" vertex="1" parent="1">
          <mxGeometry x="876" y="126" width="50" height="30" as="geometry" />
        </mxCell>
        <mxCell id="yTAIwJ2hvmFpRWH2Tt7q-28" value="Enviar a:" style="rhombus;whiteSpace=wrap;html=1;strokeColor=#67AB9F;" vertex="1" parent="1">
          <mxGeometry x="270.5" y="460" width="80" height="60" as="geometry" />
        </mxCell>
        <mxCell id="yTAIwJ2hvmFpRWH2Tt7q-34" value="(0,M)" style="text;html=1;align=center;verticalAlign=middle;resizable=0;points=[];autosize=1;strokeColor=none;fillColor=none;" vertex="1" parent="1">
          <mxGeometry x="395" y="640" width="50" height="30" as="geometry" />
        </mxCell>
        <mxCell id="yTAIwJ2hvmFpRWH2Tt7q-36" value="(1,1)" style="text;html=1;align=center;verticalAlign=middle;resizable=0;points=[];autosize=1;strokeColor=none;fillColor=none;" vertex="1" parent="1">
          <mxGeometry x="200" y="503" width="50" height="30" as="geometry" />
        </mxCell>
        <mxCell id="yTAIwJ2hvmFpRWH2Tt7q-38" value="Conducir a:" style="rhombus;whiteSpace=wrap;html=1;strokeColor=#67AB9F;" vertex="1" parent="1">
          <mxGeometry x="210.5" y="690" width="80" height="60" as="geometry" />
        </mxCell>
        <mxCell id="yTAIwJ2hvmFpRWH2Tt7q-39" style="rounded=0;orthogonalLoop=1;jettySize=auto;html=1;exitX=0.5;exitY=0;exitDx=0;exitDy=0;entryX=0.188;entryY=1.074;entryDx=0;entryDy=0;entryPerimeter=0;" edge="1" parent="1" source="OKex5-OhVl83uTOGitW6-137" target="OKex5-OhVl83uTOGitW6-5">
          <mxGeometry relative="1" as="geometry" />
        </mxCell>
        <mxCell id="yTAIwJ2hvmFpRWH2Tt7q-40" style="rounded=0;orthogonalLoop=1;jettySize=auto;html=1;exitX=1;exitY=0.5;exitDx=0;exitDy=0;entryX=-0.026;entryY=0.646;entryDx=0;entryDy=0;entryPerimeter=0;" edge="1" parent="1" source="OKex5-OhVl83uTOGitW6-132" target="OKex5-OhVl83uTOGitW6-5">
          <mxGeometry relative="1" as="geometry" />
        </mxCell>
        <mxCell id="yTAIwJ2hvmFpRWH2Tt7q-41" style="rounded=0;orthogonalLoop=1;jettySize=auto;html=1;exitX=0.5;exitY=0;exitDx=0;exitDy=0;entryX=0.563;entryY=1.046;entryDx=0;entryDy=0;entryPerimeter=0;" edge="1" parent="1" source="OKex5-OhVl83uTOGitW6-136" target="OKex5-OhVl83uTOGitW6-5">
          <mxGeometry relative="1" as="geometry" />
        </mxCell>
        <mxCell id="yTAIwJ2hvmFpRWH2Tt7q-44" style="edgeStyle=orthogonalEdgeStyle;rounded=0;orthogonalLoop=1;jettySize=auto;html=1;exitX=0.5;exitY=1;exitDx=0;exitDy=0;entryX=0.444;entryY=-0.04;entryDx=0;entryDy=0;entryPerimeter=0;endArrow=none;endFill=0;fillColor=#f8cecc;strokeColor=#67AB9F;" edge="1" parent="1" source="yTAIwJ2hvmFpRWH2Tt7q-38" target="OKex5-OhVl83uTOGitW6-5">
          <mxGeometry relative="1" as="geometry" />
        </mxCell>
        <mxCell id="yTAIwJ2hvmFpRWH2Tt7q-45" value="(1,M)" style="text;html=1;align=center;verticalAlign=middle;resizable=0;points=[];autosize=1;strokeColor=none;fillColor=none;" vertex="1" parent="1">
          <mxGeometry x="180" y="950" width="50" height="30" as="geometry" />
        </mxCell>
        <mxCell id="yTAIwJ2hvmFpRWH2Tt7q-46" value="(1,1)" style="text;html=1;align=center;verticalAlign=middle;resizable=0;points=[];autosize=1;strokeColor=none;fillColor=none;" vertex="1" parent="1">
          <mxGeometry x="155" y="558" width="50" height="30" as="geometry" />
        </mxCell>
        <mxCell id="yTAIwJ2hvmFpRWH2Tt7q-47" value="Trasportar por:" style="rhombus;whiteSpace=wrap;html=1;strokeColor=#67AB9F;" vertex="1" parent="1">
          <mxGeometry x="461.5" y="890" width="90" height="70" as="geometry" />
        </mxCell>
        <mxCell id="yTAIwJ2hvmFpRWH2Tt7q-52" value="(0,M)" style="text;html=1;align=center;verticalAlign=middle;resizable=0;points=[];autosize=1;strokeColor=none;fillColor=none;" vertex="1" parent="1">
          <mxGeometry x="468" y="710" width="50" height="30" as="geometry" />
        </mxCell>
        <mxCell id="yTAIwJ2hvmFpRWH2Tt7q-53" value="(1,1)" style="text;html=1;align=center;verticalAlign=middle;resizable=0;points=[];autosize=1;strokeColor=none;fillColor=none;" vertex="1" parent="1">
          <mxGeometry x="285" y="960" width="50" height="30" as="geometry" />
        </mxCell>
        <mxCell id="yTAIwJ2hvmFpRWH2Tt7q-58" style="edgeStyle=orthogonalEdgeStyle;rounded=0;orthogonalLoop=1;jettySize=auto;html=1;exitX=0;exitY=0.5;exitDx=0;exitDy=0;entryX=0.5;entryY=1;entryDx=0;entryDy=0;endArrow=none;endFill=0;fillColor=#f8cecc;strokeColor=#67AB9F;" edge="1" parent="1" source="yTAIwJ2hvmFpRWH2Tt7q-56" target="OKex5-OhVl83uTOGitW6-11">
          <mxGeometry relative="1" as="geometry">
            <Array as="points">
              <mxPoint x="830" y="660" />
              <mxPoint x="830" y="540" />
              <mxPoint x="380" y="540" />
              <mxPoint x="380" y="350" />
              <mxPoint x="273" y="350" />
            </Array>
          </mxGeometry>
        </mxCell>
        <mxCell id="yTAIwJ2hvmFpRWH2Tt7q-56" value="Asignado:" style="rhombus;whiteSpace=wrap;html=1;strokeColor=#67AB9F;" vertex="1" parent="1">
          <mxGeometry x="980" y="630" width="80" height="60" as="geometry" />
        </mxCell>
        <mxCell id="yTAIwJ2hvmFpRWH2Tt7q-59" value="(1,1)" style="text;html=1;align=center;verticalAlign=middle;resizable=0;points=[];autosize=1;strokeColor=none;fillColor=none;" vertex="1" parent="1">
          <mxGeometry x="1145" y="795" width="50" height="30" as="geometry" />
        </mxCell>
        <mxCell id="yTAIwJ2hvmFpRWH2Tt7q-60" value="(1,1)" style="text;html=1;align=center;verticalAlign=middle;resizable=0;points=[];autosize=1;strokeColor=none;fillColor=none;" vertex="1" parent="1">
          <mxGeometry x="270" y="180" width="50" height="30" as="geometry" />
        </mxCell>
        <mxCell id="yTAIwJ2hvmFpRWH2Tt7q-65" value="Pertenece a:" style="rhombus;whiteSpace=wrap;html=1;strokeColor=#67AB9F;fontStyle=1" vertex="1" parent="1">
          <mxGeometry x="42.5" y="760" width="80" height="60" as="geometry" />
        </mxCell>
        <mxCell id="yTAIwJ2hvmFpRWH2Tt7q-68" value="(1,1)" style="text;html=1;align=center;verticalAlign=middle;resizable=0;points=[];autosize=1;strokeColor=none;fillColor=none;" vertex="1" parent="1">
          <mxGeometry x="-116" y="750" width="50" height="30" as="geometry" />
        </mxCell>
        <mxCell id="yTAIwJ2hvmFpRWH2Tt7q-69" value="(0,M)" style="text;html=1;align=center;verticalAlign=middle;resizable=0;points=[];autosize=1;strokeColor=none;fillColor=none;" vertex="1" parent="1">
          <mxGeometry x="395" y="708" width="50" height="30" as="geometry" />
        </mxCell>
        <mxCell id="yTAIwJ2hvmFpRWH2Tt7q-72" value="Ubicado en:" style="rhombus;whiteSpace=wrap;html=1;strokeColor=#67AB9F;" vertex="1" parent="1">
          <mxGeometry x="642" y="400" width="80" height="60" as="geometry" />
        </mxCell>
        <mxCell id="yTAIwJ2hvmFpRWH2Tt7q-76" value="(0,M)" style="text;html=1;align=center;verticalAlign=middle;resizable=0;points=[];autosize=1;strokeColor=none;fillColor=none;" vertex="1" parent="1">
          <mxGeometry x="585" y="644" width="50" height="30" as="geometry" />
        </mxCell>
        <mxCell id="yTAIwJ2hvmFpRWH2Tt7q-77" value="(1,1)" style="text;html=1;align=center;verticalAlign=middle;resizable=0;points=[];autosize=1;strokeColor=none;fillColor=none;" vertex="1" parent="1">
          <mxGeometry x="725" y="1038" width="50" height="30" as="geometry" />
        </mxCell>
        <mxCell id="yTAIwJ2hvmFpRWH2Tt7q-78" value="(0,M)" style="text;html=1;align=center;verticalAlign=middle;resizable=0;points=[];autosize=1;strokeColor=none;fillColor=none;" vertex="1" parent="1">
          <mxGeometry x="895" y="1068" width="50" height="30" as="geometry" />
        </mxCell>
        <mxCell id="yTAIwJ2hvmFpRWH2Tt7q-79" value="(1,1)" style="text;html=1;align=center;verticalAlign=middle;resizable=0;points=[];autosize=1;strokeColor=none;fillColor=none;" vertex="1" parent="1">
          <mxGeometry x="1125" y="858" width="50" height="30" as="geometry" />
        </mxCell>
        <mxCell id="yTAIwJ2hvmFpRWH2Tt7q-80" value="(1,1)" style="text;html=1;align=center;verticalAlign=middle;resizable=0;points=[];autosize=1;strokeColor=none;fillColor=none;" vertex="1" parent="1">
          <mxGeometry x="1235" y="778" width="50" height="30" as="geometry" />
        </mxCell>
        <mxCell id="yTAIwJ2hvmFpRWH2Tt7q-81" value="(1,1)" style="text;html=1;align=center;verticalAlign=middle;resizable=0;points=[];autosize=1;strokeColor=none;fillColor=none;" vertex="1" parent="1">
          <mxGeometry x="135" y="448" width="50" height="30" as="geometry" />
        </mxCell>
        <mxCell id="yTAIwJ2hvmFpRWH2Tt7q-83" value="Lugar" style="ellipse;whiteSpace=wrap;html=1;" vertex="1" parent="1">
          <mxGeometry x="1293.5" y="313" width="101.57" height="60" as="geometry" />
        </mxCell>
        <mxCell id="yTAIwJ2hvmFpRWH2Tt7q-84" style="rounded=0;orthogonalLoop=1;jettySize=auto;html=1;exitX=1;exitY=1;exitDx=0;exitDy=0;entryX=0.358;entryY=0.022;entryDx=0;entryDy=0;entryPerimeter=0;" edge="1" parent="1" source="yTAIwJ2hvmFpRWH2Tt7q-83" target="OKex5-OhVl83uTOGitW6-2">
          <mxGeometry relative="1" as="geometry" />
        </mxCell>
        <mxCell id="yTAIwJ2hvmFpRWH2Tt7q-85" value="Incluir" style="rhombus;whiteSpace=wrap;html=1;strokeColor=#67AB9F;" vertex="1" parent="1">
          <mxGeometry x="1161" y="370" width="80" height="60" as="geometry" />
        </mxCell>
        <mxCell id="yTAIwJ2hvmFpRWH2Tt7q-86" style="edgeStyle=orthogonalEdgeStyle;rounded=0;orthogonalLoop=1;jettySize=auto;html=1;exitX=0.5;exitY=0;exitDx=0;exitDy=0;entryX=0.354;entryY=1.058;entryDx=0;entryDy=0;entryPerimeter=0;endArrow=none;endFill=0;strokeColor=#67AB9F;" edge="1" parent="1" source="yTAIwJ2hvmFpRWH2Tt7q-85" target="OKex5-OhVl83uTOGitW6-6">
          <mxGeometry relative="1" as="geometry" />
        </mxCell>
        <mxCell id="yTAIwJ2hvmFpRWH2Tt7q-88" value="(1,M)" style="text;html=1;align=center;verticalAlign=middle;resizable=0;points=[];autosize=1;strokeColor=none;fillColor=none;" vertex="1" parent="1">
          <mxGeometry x="1195" y="428" width="50" height="30" as="geometry" />
        </mxCell>
        <mxCell id="yTAIwJ2hvmFpRWH2Tt7q-89" value="(1,1)" style="text;html=1;align=center;verticalAlign=middle;resizable=0;points=[];autosize=1;strokeColor=none;fillColor=none;" vertex="1" parent="1">
          <mxGeometry x="1185" y="328" width="50" height="30" as="geometry" />
        </mxCell>
        <mxCell id="yTAIwJ2hvmFpRWH2Tt7q-90" style="edgeStyle=orthogonalEdgeStyle;rounded=0;orthogonalLoop=1;jettySize=auto;html=1;exitX=0.5;exitY=0;exitDx=0;exitDy=0;entryX=0.56;entryY=1.024;entryDx=0;entryDy=0;entryPerimeter=0;strokeColor=#67AB9F;endArrow=none;endFill=0;" edge="1" parent="1" source="OKex5-OhVl83uTOGitW6-2" target="yTAIwJ2hvmFpRWH2Tt7q-18">
          <mxGeometry relative="1" as="geometry" />
        </mxCell>
        <mxCell id="yTAIwJ2hvmFpRWH2Tt7q-91" value="(1,1)" style="text;html=1;align=center;verticalAlign=middle;resizable=0;points=[];autosize=1;strokeColor=none;fillColor=none;" vertex="1" parent="1">
          <mxGeometry x="1425" y="388" width="50" height="30" as="geometry" />
        </mxCell>
        <mxCell id="yTAIwJ2hvmFpRWH2Tt7q-92" value="(1,M)" style="text;html=1;align=center;verticalAlign=middle;resizable=0;points=[];autosize=1;strokeColor=none;fillColor=none;" vertex="1" parent="1">
          <mxGeometry x="1385" y="188" width="50" height="30" as="geometry" />
        </mxCell>
      </root>
    </mxGraphModel>
  </diagram>
</mxfile>
